# xmcd
#
# Track frame offsets:
#	150
#	16132
#	30535
#	43990
#	69247
#	84910
#	100957
#	114017
#	128692
#	148367
#	161787
#	175207
#
# Disc length: 2569 seconds
#
# Revision: 0
# Processed by: cddbd v1.5.1PL0 Copyright (c) Steve Scherf et al.
# Submitted via: EasyCDDAExtractor 8.2.2.1
#
DISCID=970a070c
DTITLE=Texas Tornados - 4 Aces
DYEAR=1900
DGENRE=Country
TTITLE0=Little Bit Is Better Than Nada
TTITLE1=Amor De Mi Vida
TTITLE2=In My Mind
TTITLE3=4 Aces
TTITLE4=My Cruel Pain
TTITLE5=Tell Me
TTITLE6=Ta Bueno Compadre (It's OK Friend)
TTITLE7=The Gardens
TTITLE8=Rosalita
TTITLE9=Clinging To You
TTITLE10=Mi Morenita
TTITLE11=The One I Love The Most
EXTD=
EXTT0=
EXTT1=
EXTT2=
EXTT3=
EXTT4=
EXTT5=
EXTT6=
EXTT7=
EXTT8=
EXTT9=
EXTT10=
EXTT11=
PLAYORDER=
